<svg width="16" height="16" viewBox="0 0 16 16" fill="none" xmlns="http://www.w3.org/2000/svg">
<g clip-path="url(#clip0_225_5789)">
<path d="M14.4169 12.5013L13.2002 11.2846L13.8669 4.66797H7.5002L7.33353 3.33464H10.6669V0.667969H12.0002V3.33464H15.3335L14.4169 12.5013ZM13.6502 15.5346L0.450195 2.33464L1.4002 1.38464L14.6002 14.5846L13.6502 15.5346ZM0.666862 12.668V11.3346H10.6669V12.668H0.666862ZM1.33353 15.3346C1.14464 15.3346 0.986418 15.2706 0.858862 15.1426C0.731306 15.0146 0.667306 14.8564 0.666862 14.668V14.0013H10.6669V14.668C10.6669 14.8569 10.6029 15.0153 10.4749 15.1433C10.3469 15.2713 10.1886 15.3351 10.0002 15.3346H1.33353ZM6.03353 6.01797V7.3513C5.97797 7.3513 5.91686 7.34841 5.85019 7.34264C5.78353 7.33686 5.72242 7.33419 5.66686 7.33463C5.01131 7.33463 4.39197 7.44575 3.80886 7.66797C3.22575 7.89019 2.77286 8.22352 2.4502 8.66797H8.68353L10.0169 10.0013H0.666862C0.666862 8.65686 1.18642 7.65419 2.22553 6.9933C3.26464 6.33241 4.41175 6.00175 5.66686 6.0013C5.72242 6.0013 5.78353 6.00419 5.85019 6.00997C5.91686 6.01575 5.97797 6.01841 6.03353 6.01797Z" fill="black"/>
</g>
<defs>
<clipPath id="clip0_225_5789">
<rect width="16" height="16" fill="white"/>
</clipPath>
</defs>
</svg>
