<svg width="19" height="19" viewBox="0 0 19 19" fill="none" xmlns="http://www.w3.org/2000/svg">
<path d="M17.8125 8.31206C17.8113 7.21011 17.373 6.15364 16.5938 5.37445C15.8146 4.59525 14.7582 4.15699 13.6562 4.15581C13.5249 4.15581 13.3935 4.16323 13.2636 4.1751C12.9285 3.45984 12.3965 2.85489 11.7299 2.4311C11.0634 2.0073 10.2898 1.78223 9.49997 1.78223C8.7101 1.78223 7.93658 2.0073 7.27002 2.4311C6.60346 2.85489 6.07146 3.45984 5.73634 4.1751C5.60646 4.16323 5.47509 4.15581 5.34372 4.15581C4.40024 4.15604 3.48491 4.47726 2.7482 5.06669C2.01149 5.65611 1.49724 6.47865 1.28999 7.39909C1.08275 8.31952 1.19483 9.28309 1.60782 10.1314C2.02082 10.9797 2.71014 11.6622 3.56247 12.0668V15.4371C3.56247 15.752 3.68758 16.054 3.91028 16.2767C4.13298 16.4994 4.43503 16.6246 4.74997 16.6246H14.25C14.5649 16.6246 14.867 16.4994 15.0897 16.2767C15.3124 16.054 15.4375 15.752 15.4375 15.4371V12.0668C16.1475 11.7291 16.7474 11.1972 17.1677 10.5327C17.588 9.86825 17.8116 9.09832 17.8125 8.31206ZM14.25 15.4371H4.74997V12.4253C4.94659 12.4539 5.14503 12.4683 5.34372 12.4683H13.6562C13.8549 12.4683 14.0534 12.4539 14.25 12.4253V15.4371ZM13.6562 11.2808H12.6357L13.0447 9.64354C13.0798 9.49186 13.054 9.33242 12.9728 9.1996C12.8915 9.06677 12.7613 8.97117 12.6103 8.93341C12.4592 8.89564 12.2993 8.91873 12.1651 8.99769C12.0309 9.07666 11.9331 9.20518 11.8928 9.35557L11.4111 11.2808H10.0937V9.49956C10.0937 9.34209 10.0312 9.19106 9.91982 9.07971C9.80847 8.96836 9.65745 8.90581 9.49997 8.90581C9.3425 8.90581 9.19148 8.96836 9.08013 9.07971C8.96878 9.19106 8.90622 9.34209 8.90622 9.49956V11.2808H7.58884L7.10716 9.35557C7.08936 9.27878 7.05644 9.2063 7.01033 9.14237C6.96422 9.07843 6.90583 9.02432 6.83859 8.98318C6.77134 8.94205 6.69658 8.91472 6.61866 8.90278C6.54074 8.89085 6.46123 8.89454 6.38475 8.91366C6.30827 8.93278 6.23637 8.96694 6.17324 9.01414C6.1101 9.06134 6.057 9.12064 6.01702 9.18858C5.97704 9.25652 5.951 9.33174 5.9404 9.40985C5.9298 9.48796 5.93486 9.56741 5.95529 9.64354L6.36423 11.2808H5.34372C4.55636 11.2808 3.80125 10.968 3.2445 10.4113C2.68775 9.85453 2.37497 9.09942 2.37497 8.31206C2.37497 7.5247 2.68775 6.76958 3.2445 6.21283C3.80125 5.65609 4.55636 5.34331 5.34372 5.34331H5.38677C5.35799 5.53991 5.3436 5.73836 5.34372 5.93706C5.34372 6.09453 5.40628 6.24555 5.51763 6.3569C5.62898 6.46825 5.78 6.53081 5.93747 6.53081C6.09495 6.53081 6.24597 6.46825 6.35732 6.3569C6.46867 6.24555 6.53122 6.09453 6.53122 5.93706C6.53122 5.1497 6.844 4.39458 7.40075 3.83783C7.9575 3.28109 8.71261 2.96831 9.49997 2.96831C10.2873 2.96831 11.0424 3.28109 11.5992 3.83783C12.1559 4.39458 12.4687 5.1497 12.4687 5.93706C12.4687 6.09453 12.5313 6.24555 12.6426 6.3569C12.754 6.46825 12.905 6.53081 13.0625 6.53081C13.2199 6.53081 13.371 6.46825 13.4823 6.3569C13.5937 6.24555 13.6562 6.09453 13.6562 5.93706C13.6563 5.73836 13.642 5.53991 13.6132 5.34331H13.6562C14.4436 5.34331 15.1987 5.65609 15.7554 6.21283C16.3122 6.76958 16.625 7.5247 16.625 8.31206C16.625 9.09942 16.3122 9.85453 15.7554 10.4113C15.1987 10.968 14.4436 11.2808 13.6562 11.2808Z" fill="#FA4448"/>
</svg>
