<svg width="15" height="19" viewBox="0 0 15 19" fill="none" xmlns="http://www.w3.org/2000/svg">
<path d="M9.5 6.49971C9.5 5.70871 10.553 5.49871 10.832 6.23971C11.508 8.02971 12 9.63371 12 10.4997C12 11.8258 11.4732 13.0976 10.5355 14.0352C9.59785 14.9729 8.32608 15.4997 7 15.4997C5.67392 15.4997 4.40215 14.9729 3.46447 14.0352C2.52678 13.0976 2 11.8258 2 10.4997C2 9.56971 2.568 7.78871 3.322 5.83671C4.297 3.30871 4.785 2.04471 5.388 1.97671C5.58 1.95471 5.791 1.99371 5.963 2.08371C6.5 2.36371 6.5 3.74271 6.5 6.49971C6.5 6.89754 6.65804 7.27907 6.93934 7.56037C7.22064 7.84168 7.60218 7.99971 8 7.99971C8.39782 7.99971 8.77936 7.84168 9.06066 7.56037C9.34196 7.27907 9.5 6.89754 9.5 6.49971Z" stroke="#FE4237"/>
<path d="M5.99978 15.4994L5.73678 14.8424C5.51298 14.2829 5.44162 13.6741 5.52999 13.078C5.61835 12.4819 5.86328 11.9199 6.23978 11.4494C6.33093 11.3354 6.44657 11.2434 6.57813 11.1801C6.70969 11.1168 6.8538 11.084 6.99978 11.084C7.14576 11.084 7.28987 11.1168 7.42143 11.1801C7.55299 11.2434 7.66863 11.3354 7.75978 11.4494C8.52578 12.4074 8.71778 13.7034 8.26278 14.8424L7.99978 15.4994" stroke="#FE4237"/>
</svg>
