<svg width="24" height="24" viewBox="0 0 24 24" fill="none" xmlns="http://www.w3.org/2000/svg">
<path d="M22.2251 19.9828V12.4341C22.2251 11.8259 22.0997 11.2239 21.8565 10.665C21.6134 10.106 21.2575 9.60175 20.8107 9.1828L13.5658 2.39202C13.1435 1.99613 12.5833 1.77539 12.0008 1.77539C11.4183 1.77539 10.8581 1.99613 10.4358 2.39202L3.18983 9.1828C2.74295 9.60175 2.3871 10.106 2.14394 10.665C1.90078 11.2239 1.77539 11.8259 1.77539 12.4341V19.9828C1.77539 20.5775 2.01478 21.1478 2.4409 21.5683C2.86702 21.9889 3.44496 22.2251 4.04758 22.2251H19.9529C20.5555 22.2251 21.1335 21.9889 21.5596 21.5683C21.9857 21.1478 22.2251 20.5775 22.2251 19.9828Z" fill="#FA4448"/>
<path d="M15.9086 15.2288V14.7288H15.4086H14.2044V10.7442C14.2044 10.45 14.4109 10.0164 14.8606 9.63399C15.1816 9.36098 15.591 9.14699 16.0447 9.05338V19.2134H15.9086V15.2288ZM10.8642 12.926H11.3642V12.426V9.00195H11.5003V12.426C11.5003 13.3825 10.7136 14.1683 9.72811 14.1683H9.22811V14.6683V19.2134H9.09201V14.6683V14.1683H8.59201C7.60651 14.1683 6.81982 13.3825 6.81982 12.426V9.00195H6.95592V12.426V12.926H7.45592H8.59201H9.09201V12.426V9.00195H9.22811V12.426V12.926H9.72811H10.8642Z" fill="white" stroke="white"/>
</svg>
