<svg width="24" height="24" viewBox="0 0 24 24" fill="none" xmlns="http://www.w3.org/2000/svg">
<path d="M13.7044 10.7442V15.2288H15.4086V19.7134H16.5447V8.50195C14.9769 8.50195 13.7044 9.75764 13.7044 10.7442ZM10.8642 12.426H9.72811V8.50195H8.59201V12.426H7.45592V8.50195H6.31982V12.426C6.31982 13.6648 7.33663 14.6683 8.59201 14.6683V19.7134H9.72811V14.6683C10.9835 14.6683 12.0003 13.6648 12.0003 12.426V8.50195H10.8642V12.426Z" fill="#8F8F94"/>
<path d="M22.2251 19.9828V12.4341C22.2251 11.8259 22.0997 11.2239 21.8565 10.665C21.6134 10.106 21.2575 9.60175 20.8107 9.1828L13.5658 2.39202C13.1435 1.99613 12.5833 1.77539 12.0008 1.77539C11.4183 1.77539 10.8581 1.99613 10.4358 2.39202L3.18983 9.1828C2.74295 9.60175 2.3871 10.106 2.14394 10.665C1.90078 11.2239 1.77539 11.8259 1.77539 12.4341V19.9828C1.77539 20.5775 2.01478 21.1478 2.4409 21.5683C2.86702 21.9889 3.44496 22.2251 4.04758 22.2251H19.9529C20.5555 22.2251 21.1335 21.9889 21.5596 21.5683C21.9857 21.1478 22.2251 20.5775 22.2251 19.9828Z" stroke="#8F8F94" stroke-width="1.5" stroke-linecap="round" stroke-linejoin="round"/>
</svg>
