<svg width="16" height="16" viewBox="0 0 16 16" fill="none" xmlns="http://www.w3.org/2000/svg">
<path d="M8.00016 14.6673C7.08905 14.6673 6.22794 14.4922 5.41683 14.142C4.60572 13.7918 3.8975 13.314 3.29216 12.7087C2.68683 12.1033 2.20905 11.3951 1.85883 10.584C1.50861 9.77287 1.3335 8.91176 1.3335 8.00065C1.3335 7.07843 1.50861 6.21465 1.85883 5.40932C2.20905 4.60398 2.68683 3.89843 3.29216 3.29265C3.8975 2.68687 4.60572 2.2091 5.41683 1.85932C6.22794 1.50954 7.08905 1.33443 8.00016 1.33398C8.92239 1.33398 9.78638 1.5091 10.5922 1.85932C11.3979 2.20954 12.1033 2.68732 12.7082 3.29265C13.3131 3.89798 13.7908 4.60354 14.1415 5.40932C14.4922 6.2151 14.6673 7.07887 14.6668 8.00065C14.6668 8.91176 14.4917 9.77287 14.1415 10.584C13.7913 11.3951 13.3135 12.1035 12.7082 12.7093C12.1028 13.3151 11.3973 13.7929 10.5915 14.1426C9.78572 14.4924 8.92194 14.6673 8.00016 14.6673ZM8.00016 13.3007C8.28905 12.9007 8.53905 12.484 8.75016 12.0507C8.96127 11.6173 9.1335 11.1562 9.26683 10.6673H6.7335C6.86683 11.1562 7.03905 11.6173 7.25016 12.0507C7.46127 12.484 7.71127 12.9007 8.00016 13.3007ZM6.26683 13.034C6.06683 12.6673 5.89194 12.2867 5.74216 11.892C5.59238 11.4973 5.46727 11.0891 5.36683 10.6673H3.40016C3.72238 11.2229 4.12527 11.7062 4.60883 12.1173C5.09239 12.5284 5.64505 12.834 6.26683 13.034ZM9.7335 13.034C10.3557 12.834 10.9086 12.5284 11.3922 12.1173C11.8757 11.7062 12.2784 11.2229 12.6002 10.6673H10.6335C10.5335 11.0895 10.4086 11.498 10.2588 11.8926C10.1091 12.2873 9.93394 12.6678 9.7335 13.034ZM2.8335 9.33398H5.10016C5.06683 9.11176 5.04194 8.89243 5.0255 8.67598C5.00905 8.45954 5.00061 8.23443 5.00016 8.00065C4.99972 7.76687 5.00816 7.54198 5.0255 7.32598C5.04283 7.10998 5.06772 6.89043 5.10016 6.66732H2.8335C2.77794 6.88954 2.73639 7.1091 2.70883 7.32598C2.68127 7.54287 2.66727 7.76776 2.66683 8.00065C2.66639 8.23354 2.68039 8.45865 2.70883 8.67598C2.73727 8.89332 2.77883 9.11265 2.8335 9.33398ZM6.4335 9.33398H9.56683C9.60016 9.11176 9.62527 8.89243 9.64216 8.67598C9.65905 8.45954 9.66727 8.23443 9.66683 8.00065C9.66639 7.76687 9.65794 7.54198 9.6415 7.32598C9.62505 7.10998 9.60016 6.89043 9.56683 6.66732H6.4335C6.40016 6.88954 6.37527 7.1091 6.35883 7.32598C6.34239 7.54287 6.33394 7.76776 6.3335 8.00065C6.33305 8.23354 6.3415 8.45865 6.35883 8.67598C6.37616 8.89332 6.40105 9.11265 6.4335 9.33398ZM10.9002 9.33398H13.1668C13.2224 9.11176 13.2642 8.89243 13.2922 8.67598C13.3202 8.45954 13.3339 8.23443 13.3335 8.00065C13.3331 7.76687 13.3193 7.54198 13.2922 7.32598C13.2651 7.10998 13.2233 6.89043 13.1668 6.66732H10.9002C10.9335 6.88954 10.9586 7.1091 10.9755 7.32598C10.9924 7.54287 11.0006 7.76776 11.0002 8.00065C10.9997 8.23354 10.9913 8.45865 10.9748 8.67598C10.9584 8.89332 10.9335 9.11265 10.9002 9.33398ZM10.6335 5.33398H12.6002C12.2779 4.77843 11.8753 4.2951 11.3922 3.88398C10.9091 3.47287 10.3562 3.16732 9.7335 2.96732C9.9335 3.33398 10.1086 3.71465 10.2588 4.10932C10.4091 4.50398 10.5339 4.91221 10.6335 5.33398ZM6.7335 5.33398H9.26683C9.1335 4.8451 8.96127 4.38398 8.75016 3.95065C8.53905 3.51732 8.28905 3.10065 8.00016 2.70065C7.71127 3.10065 7.46127 3.51732 7.25016 3.95065C7.03905 4.38398 6.86683 4.8451 6.7335 5.33398ZM3.40016 5.33398H5.36683C5.46683 4.91176 5.59194 4.50332 5.74216 4.10865C5.89239 3.71398 6.06727 3.33354 6.26683 2.96732C5.64461 3.16732 5.09172 3.47287 4.60816 3.88398C4.12461 4.2951 3.72194 4.77843 3.40016 5.33398Z" fill="#292D32"/>
</svg>
