<svg width="16" height="16" viewBox="0 0 16 16" fill="none" xmlns="http://www.w3.org/2000/svg">
<g clip-path="url(#clip0_225_3896)">
<path fill-rule="evenodd" clip-rule="evenodd" d="M3.33361 6.00065C3.33361 4.76297 3.82528 3.57599 4.70045 2.70082C5.57562 1.82565 6.7626 1.33398 8.00028 1.33398C9.23796 1.33398 10.4249 1.82565 11.3001 2.70082C12.1753 3.57599 12.6669 4.76297 12.6669 6.00065V8.50998L13.8816 10.9393C13.9375 11.0511 13.9639 11.1754 13.9583 11.3003C13.9527 11.4252 13.9152 11.5465 13.8495 11.6529C13.7838 11.7592 13.692 11.847 13.5828 11.9079C13.4736 11.9687 13.3506 12.0007 13.2256 12.0007H10.5829C10.4347 12.5728 10.1006 13.0795 9.63312 13.4413C9.16568 13.803 8.59134 13.9993 8.00028 13.9993C7.40921 13.9993 6.83488 13.803 6.36744 13.4413C5.89999 13.0795 5.5659 12.5728 5.41761 12.0007H2.77495C2.64993 12.0007 2.52699 11.9687 2.41779 11.9079C2.30859 11.847 2.21677 11.7592 2.15104 11.6529C2.08531 11.5465 2.04786 11.4252 2.04224 11.3003C2.03663 11.1754 2.06303 11.0511 2.11895 10.9393L3.33361 8.50998V6.00065ZM6.84561 12.0007C6.96264 12.2033 7.13096 12.3716 7.33364 12.4886C7.53633 12.6057 7.76624 12.6673 8.00028 12.6673C8.23432 12.6673 8.46423 12.6057 8.66692 12.4886C8.8696 12.3716 9.03792 12.2033 9.15495 12.0007H6.84561ZM8.00028 2.66732C7.11622 2.66732 6.26838 3.01851 5.64326 3.64363C5.01814 4.26875 4.66695 5.1166 4.66695 6.00065V8.50998C4.66693 8.71687 4.61877 8.92092 4.52628 9.10598L3.74628 10.6673H12.2549L11.4749 9.10598C11.3822 8.92098 11.3338 8.71693 11.3336 8.50998V6.00065C11.3336 5.1166 10.9824 4.26875 10.3573 3.64363C9.73218 3.01851 8.88433 2.66732 8.00028 2.66732Z" fill="#292D32"/>
</g>
<defs>
<clipPath id="clip0_225_3896">
<rect width="16" height="16" fill="white"/>
</clipPath>
</defs>
</svg>
