<svg width="24" height="25" viewBox="0 0 24 25" fill="none" xmlns="http://www.w3.org/2000/svg">
<path d="M12.0201 3.28516C8.71009 3.28516 6.02009 5.97516 6.02009 9.28516V12.1752C6.02009 12.7852 5.76009 13.7152 5.45009 14.2352L4.30009 16.1452C3.59009 17.3252 4.08009 18.6352 5.38009 19.0752C9.69009 20.5152 14.3401 20.5152 18.6501 19.0752C19.8601 18.6752 20.3901 17.2452 19.7301 16.1452L18.5801 14.2352C18.2801 13.7152 18.0201 12.7852 18.0201 12.1752V9.28516C18.0201 5.98516 15.3201 3.28516 12.0201 3.28516Z" stroke="white" stroke-width="1.5" stroke-miterlimit="10" stroke-linecap="round"/>
<path d="M13.8699 3.57445C13.5599 3.48445 13.2399 3.41445 12.9099 3.37445C11.9499 3.25445 11.0299 3.32445 10.1699 3.57445C10.4599 2.83445 11.1799 2.31445 12.0199 2.31445C12.8599 2.31445 13.5799 2.83445 13.8699 3.57445Z" stroke="white" stroke-width="1.5" stroke-miterlimit="10" stroke-linecap="round" stroke-linejoin="round"/>
<path d="M15.02 19.4355C15.02 21.0855 13.67 22.4355 12.02 22.4355C11.2 22.4355 10.44 22.0955 9.90002 21.5555C9.36002 21.0155 9.02002 20.2555 9.02002 19.4355" stroke="white" stroke-width="1.5" stroke-miterlimit="10"/>
<circle cx="19" cy="5.375" r="5" fill="#FA4448"/>
</svg>
