<svg width="16" height="16" viewBox="0 0 16 16" fill="none" xmlns="http://www.w3.org/2000/svg">
<path d="M1.3335 8.40625H12.6668" stroke="#292D32" stroke-width="1.2" stroke-miterlimit="10" stroke-linecap="round" stroke-linejoin="round"/>
<path d="M12.6668 6.85385V11.6205C12.6468 13.5205 12.1268 14.0005 10.1468 14.0005H3.85352C1.84018 14.0005 1.3335 13.5005 1.3335 11.5139V6.85385C1.3335 5.05385 1.7535 4.47385 3.3335 4.38052C3.4935 4.37385 3.66685 4.36719 3.85352 4.36719H10.1468C12.1601 4.36719 12.6668 4.86719 12.6668 6.85385Z" stroke="#292D32" stroke-width="1.2" stroke-linecap="round" stroke-linejoin="round"/>
<path d="M14.6668 4.48667V9.14667C14.6668 10.9467 14.2468 11.5267 12.6668 11.62V6.85333C12.6668 4.86667 12.1601 4.36667 10.1468 4.36667H3.85352C3.66685 4.36667 3.4935 4.37333 3.3335 4.38C3.3535 2.48 3.87352 2 5.85352 2H12.1468C14.1601 2 14.6668 2.5 14.6668 4.48667Z" stroke="#292D32" stroke-width="1.2" stroke-linecap="round" stroke-linejoin="round"/>
<path d="M3.5 11.873H4.64665" stroke="#292D32" stroke-width="1.2" stroke-miterlimit="10" stroke-linecap="round" stroke-linejoin="round"/>
<path d="M6.07324 11.873H8.36658" stroke="#292D32" stroke-width="1.2" stroke-miterlimit="10" stroke-linecap="round" stroke-linejoin="round"/>
</svg>
