<svg width="33" height="33" viewBox="0 0 33 33" fill="none" xmlns="http://www.w3.org/2000/svg">
<path d="M25.6255 11C25.4424 13.5419 23.5567 15.5 21.5005 15.5C19.4442 15.5 17.5555 13.5425 17.3755 11C17.188 8.35562 19.0236 6.5 21.5005 6.5C23.9774 6.5 25.813 8.40375 25.6255 11Z" stroke="black" stroke-linecap="round" stroke-linejoin="round"/>
<path d="M21.4998 19.5C17.4266 19.5 13.5098 21.5231 12.5285 25.4631C12.3985 25.9844 12.7254 26.5 13.261 26.5H29.7391C30.2748 26.5 30.5998 25.9844 30.4716 25.4631C29.4904 21.46 25.5735 19.5 21.4998 19.5Z" stroke="black" stroke-miterlimit="10"/>
<path d="M12.9996 12.1213C12.8534 14.1513 11.3296 15.75 9.68712 15.75C8.04462 15.75 6.51837 14.1519 6.37462 12.1213C6.22525 10.0094 7.70837 8.5 9.68712 8.5C11.6659 8.5 13.149 10.0481 12.9996 12.1213Z" stroke="black" stroke-linecap="round" stroke-linejoin="round"/>
<path d="M13.3746 19.6248C12.2465 19.1079 11.004 18.9092 9.68713 18.9092C6.43713 18.9092 3.30588 20.5248 2.52151 23.6717C2.41838 24.0879 2.67963 24.4998 3.10713 24.4998H10.1246" stroke="black" stroke-miterlimit="10" stroke-linecap="round"/>
</svg>
