<svg width="24" height="24" viewBox="0 0 24 24" fill="none" xmlns="http://www.w3.org/2000/svg">
<path d="M19.236 21.25C19.236 17.648 15.22 14.72 11.618 14.72C8.016 14.72 4 17.648 4 21.25M11.618 11.456C12.7725 11.456 13.8797 10.9974 14.696 10.181C15.5124 9.36469 15.971 8.25749 15.971 7.103C15.971 5.94851 15.5124 4.84131 14.696 4.02496C13.8797 3.20862 12.7725 2.75 11.618 2.75C10.4635 2.75 9.35631 3.20862 8.53996 4.02496C7.72362 4.84131 7.265 5.94851 7.265 7.103C7.265 8.25749 7.72362 9.36469 8.53996 10.181C9.35631 10.9974 10.4635 11.456 11.618 11.456Z" stroke="#8F8F94" stroke-width="1.5" stroke-linecap="round" stroke-linejoin="round"/>
</svg>
