<svg width="24" height="24" viewBox="0 0 24 24" fill="none" xmlns="http://www.w3.org/2000/svg">
<path d="M3.83203 11V14C3.83203 17.771 3.83203 19.657 5.00403 20.828C6.17503 22 8.06103 22 11.832 22H12.832C16.603 22 18.489 22 19.66 20.828C20.832 19.657 20.832 17.771 20.832 14V11" stroke="#8F8F94" stroke-width="1.5"/>
<path d="M9.83204 2H14.832L15.484 8.517C15.527 8.95677 15.4774 9.40065 15.3386 9.82013C15.1997 10.2396 14.9746 10.6254 14.6778 10.9526C14.3809 11.2799 14.0188 11.5415 13.6149 11.7204C13.2109 11.8994 12.7739 11.9919 12.332 11.9919C11.8902 11.9919 11.4532 11.8994 11.0492 11.7204C10.6452 11.5415 10.2832 11.2799 9.98631 10.9526C9.68944 10.6254 9.46434 10.2396 9.32549 9.82013C9.18663 9.40065 9.13709 8.95677 9.18004 8.517L9.83204 2Z" stroke="#8F8F94" stroke-width="1.5"/>
<path d="M3.66205 5.351C3.84005 4.461 3.92905 4.016 4.11005 3.655C4.29865 3.27904 4.5642 2.94694 4.88946 2.68025C5.21472 2.41356 5.59242 2.21826 5.99805 2.107C6.38805 2 6.84205 2 7.75005 2H9.83205L9.10705 9.245C9.06879 9.65963 8.94631 10.0621 8.74711 10.4277C8.54791 10.7934 8.27617 11.1145 7.94854 11.3715C7.62092 11.6285 7.24429 11.8159 6.84171 11.9223C6.43914 12.0287 6.01909 12.0518 5.60728 11.9901C5.19547 11.9285 4.80057 11.7835 4.44674 11.564C4.09292 11.3445 3.78762 11.0551 3.54954 10.7135C3.31146 10.3718 3.1456 9.98523 3.06213 9.5773C2.97865 9.16936 2.9793 8.74867 3.06405 8.341L3.66205 5.351ZM21.0021 5.351C20.8241 4.461 20.7351 4.016 20.5541 3.655C20.3655 3.27904 20.0999 2.94694 19.7747 2.68025C19.4494 2.41356 19.0717 2.21826 18.6661 2.107C18.2761 2 17.8221 2 16.9141 2H14.8321L15.5571 9.245C15.5953 9.65963 15.7178 10.0621 15.917 10.4277C16.1162 10.7934 16.3879 11.1145 16.7156 11.3715C17.0432 11.6285 17.4198 11.8159 17.8224 11.9223C18.225 12.0287 18.645 12.0518 19.0568 11.9901C19.4686 11.9285 19.8635 11.7835 20.2174 11.564C20.5712 11.3445 20.8765 11.0551 21.1146 10.7135C21.3526 10.3718 21.5185 9.98523 21.602 9.5773C21.6855 9.16936 21.6848 8.74867 21.6001 8.341L21.0021 5.351Z" stroke="#8F8F94" stroke-width="1.5"/>
<path d="M9.83203 21.5V18.5C9.83203 17.565 9.83203 17.098 10.033 16.75C10.1647 16.522 10.354 16.3326 10.582 16.201C10.93 16 11.397 16 12.332 16C13.267 16 13.734 16 14.082 16.201C14.31 16.3326 14.4994 16.522 14.631 16.75C14.832 17.098 14.832 17.565 14.832 18.5V21.5" stroke="#8F8F94" stroke-width="1.5" stroke-linecap="round"/>
</svg>
