<svg width="16" height="16" viewBox="0 0 16 16" fill="none" xmlns="http://www.w3.org/2000/svg">
<path d="M11.4666 14.6656C13.2339 14.6656 14.6666 13.2329 14.6666 11.4656C14.6666 9.69831 13.2339 8.26562 11.4666 8.26562C9.69928 8.26562 8.2666 9.69831 8.2666 11.4656C8.2666 13.2329 9.69928 14.6656 11.4666 14.6656Z" stroke="#292D32" stroke-width="1.2" stroke-miterlimit="10" stroke-linecap="round" stroke-linejoin="round"/>
<path d="M12.6596 11.5039H10.2729" stroke="#292D32" stroke-width="1.2" stroke-miterlimit="10" stroke-linecap="round" stroke-linejoin="round"/>
<path d="M11.4663 10.3379V12.7312" stroke="#292D32" stroke-width="1.2" stroke-miterlimit="10" stroke-linecap="round" stroke-linejoin="round"/>
<path d="M14.6668 5.79309C14.6668 7.10642 14.3268 8.2664 13.7935 9.27307C13.2068 8.65307 12.3802 8.26644 11.4668 8.26644C9.70017 8.26644 8.26685 9.69976 8.26685 11.4664C8.26685 12.2864 8.58017 13.0331 9.08683 13.5998C8.84017 13.7131 8.61349 13.8064 8.41349 13.8731C8.18683 13.9531 7.8135 13.9531 7.58683 13.8731C5.6535 13.2131 1.3335 10.4598 1.3335 5.79309C1.3335 3.73309 2.99349 2.06641 5.04016 2.06641C6.24683 2.06641 7.32683 2.6531 8.00016 3.5531C8.6735 2.6531 9.7535 2.06641 10.9602 2.06641C13.0068 2.06641 14.6668 3.73309 14.6668 5.79309Z" stroke="#292D32" stroke-width="1.2" stroke-linecap="round" stroke-linejoin="round"/>
</svg>
