<svg width="15" height="11" viewBox="0 0 15 11" fill="none" xmlns="http://www.w3.org/2000/svg">
<path d="M5.71429 7.64286L9.42143 5.5L5.71429 3.35714V7.64286ZM13.9714 2.05C14.0643 2.38571 14.1286 2.83571 14.1714 3.40714C14.2214 3.97857 14.2429 4.47143 14.2429 4.9L14.2857 5.5C14.2857 7.06429 14.1714 8.21429 13.9714 8.95C13.7929 9.59286 13.3786 10.0071 12.7357 10.1857C12.4 10.2786 11.7857 10.3429 10.8429 10.3857C9.91429 10.4357 9.06429 10.4571 8.27857 10.4571L7.14286 10.5C4.15 10.5 2.28571 10.3857 1.55 10.1857C0.907143 10.0071 0.492857 9.59286 0.314286 8.95C0.221429 8.61429 0.157143 8.16429 0.114286 7.59286C0.0642858 7.02143 0.0428571 6.52857 0.0428571 6.1L0 5.5C0 3.93571 0.114286 2.78571 0.314286 2.05C0.492857 1.40714 0.907143 0.992857 1.55 0.814286C1.88571 0.721429 2.5 0.657143 3.44286 0.614286C4.37143 0.564286 5.22143 0.542857 6.00714 0.542857L7.14286 0.5C10.1357 0.5 12 0.614286 12.7357 0.814286C13.3786 0.992857 13.7929 1.40714 13.9714 2.05Z" fill="#FA4448"/>
</svg>
